<svg width="18" height="24" viewBox="0 0 18 24" fill="none" xmlns="http://www.w3.org/2000/svg">
<mask id="path-1-inside-1" fill="white">
<path d="M3 0C2.20435 0 1.44129 0.31607 0.87868 0.87868C0.31607 1.44129 0 2.20435 0 3V21C0 21.7956 0.31607 22.5587 0.87868 23.1213C1.44129 23.6839 2.20435 24 3 24H15C15.7956 24 16.5587 23.6839 17.1213 23.1213C17.6839 22.5587 18 21.7956 18 21V8.121C17.9995 7.52446 17.7621 6.95255 17.34 6.531L11.469 0.6585C11.0472 0.236972 10.4753 0.000127322 9.879 0H3ZM1.5 3C1.5 2.60218 1.65804 2.22064 1.93934 1.93934C2.22064 1.65804 2.60218 1.5 3 1.5H9V6.75C9 7.34674 9.23705 7.91903 9.65901 8.34099C10.081 8.76295 10.6533 9 11.25 9H16.5V21C16.5 21.3978 16.342 21.7794 16.0607 22.0607C15.7794 22.342 15.3978 22.5 15 22.5H3C2.60218 22.5 2.22064 22.342 1.93934 22.0607C1.65804 21.7794 1.5 21.3978 1.5 21V3ZM16.1895 7.5H11.25C11.0511 7.5 10.8603 7.42098 10.7197 7.28033C10.579 7.13968 10.5 6.94891 10.5 6.75V1.8105L16.1895 7.5Z"/>
</mask>
<path d="M3 0V-65V0ZM0 3H-65H0ZM0 21H-65H0ZM18 8.121H83V8.09239L83 8.06378L18 8.121ZM17.34 6.531L-28.6278 52.4871L-28.6106 52.5043L-28.5933 52.5216L17.34 6.531ZM11.469 0.6585L57.4368 -45.2976L57.4265 -45.3079L57.4162 -45.3182L11.469 0.6585ZM9.879 0L9.89288 -65H9.879V0ZM3 1.5V-63.5V1.5ZM9 1.5H74V-63.5H9V1.5ZM9 6.75H-56H9ZM16.5 9H81.5V-56H16.5V9ZM16.1895 7.5V72.5H173.113L62.1514 -38.4619L16.1895 7.5ZM10.5 1.8105L56.4619 -44.1514L-54.5 -155.113V1.8105H10.5ZM3 -65C-15.0347 -65 -32.3308 -57.8357 -45.0833 -45.0833L46.8406 46.8406C35.2134 58.4679 19.4434 65 3 65V-65ZM-45.0833 -45.0833C-57.8357 -32.3308 -65 -15.0347 -65 3H65C65 19.4434 58.4679 35.2134 46.8406 46.8406L-45.0833 -45.0833ZM-65 3V21H65V3H-65ZM-65 21C-65 39.0347 -57.8357 56.3308 -45.0833 69.0833L46.8406 -22.8406C58.4679 -11.2134 65 4.55657 65 21H-65ZM-45.0833 69.0833C-32.3308 81.8357 -15.0347 89 3 89V-41C19.4435 -41 35.2134 -34.4679 46.8406 -22.8406L-45.0833 69.0833ZM3 89H15V-41H3V89ZM15 89C33.0348 89 50.3308 81.8357 63.0833 69.0833L-28.8406 -22.8406C-17.2134 -34.4678 -1.44347 -41 15 -41V89ZM63.0833 69.0833C75.8357 56.3308 83 39.0348 83 21H-47C-47 4.55653 -40.4678 -11.2134 -28.8406 -22.8406L63.0833 69.0833ZM83 21V8.121H-47V21H83ZM83 8.06378C82.9843 -9.76598 75.8888 -26.8598 63.2733 -39.4596L-28.5933 52.5216C-40.3646 40.7649 -46.9853 24.8149 -47 8.17822L83 8.06378ZM63.3078 -39.4251L57.4368 -45.2976L-34.4988 46.6146L-28.6278 52.4871L63.3078 -39.4251ZM57.4162 -45.3182C44.8092 -57.9171 27.7163 -64.9962 9.89288 -65L9.86512 65C-6.76561 64.9964 -22.7148 58.3911 -34.4782 46.6352L57.4162 -45.3182ZM9.879 -65H3V65H9.879V-65ZM66.5 3C66.5 19.8413 59.8098 35.9927 47.9013 47.9013L-44.0226 -44.0226C-56.4937 -31.5515 -63.5 -14.6369 -63.5 3H66.5ZM47.9013 47.9013C35.9927 59.8098 19.8413 66.5 3 66.5V-63.5C-14.6369 -63.5 -31.5514 -56.4938 -44.0226 -44.0226L47.9013 47.9013ZM3 66.5H9V-63.5H3V66.5ZM-56 1.5V6.75H74V1.5H-56ZM-56 6.75C-56 24.5858 -48.9148 41.6911 -36.3029 54.3029L55.6209 -37.6209C67.3889 -25.853 74 -9.8923 74 6.75H-56ZM-36.3029 54.3029C-23.6911 66.9148 -6.58578 74 11.25 74V-56C27.8923 -56 43.853 -49.3889 55.6209 -37.6209L-36.3029 54.3029ZM11.25 74H16.5V-56H11.25V74ZM-48.5 9V21H81.5V9H-48.5ZM-48.5 21C-48.5 4.15877 -41.8099 -11.9927 -29.9013 -23.9013L62.0226 68.0226C74.4938 55.5514 81.5 38.6369 81.5 21H-48.5ZM-29.9013 -23.9013C-17.9926 -35.8099 -1.84113 -42.5 15 -42.5V87.5C32.6368 87.5 49.5513 80.4939 62.0226 68.0226L-29.9013 -23.9013ZM15 -42.5H3V87.5H15V-42.5ZM3 -42.5C19.8411 -42.5 35.9926 -35.8099 47.9013 -23.9013L-44.0226 68.0226C-31.5514 80.4939 -14.6368 87.5 3 87.5V-42.5ZM47.9013 -23.9013C59.8099 -11.9927 66.5 4.15877 66.5 21H-63.5C-63.5 38.6369 -56.4938 55.5514 -44.0226 68.0226L47.9013 -23.9013ZM66.5 21V3H-63.5V21H66.5ZM16.1895 -57.5H11.25V72.5H16.1895V-57.5ZM11.25 -57.5C28.2901 -57.5 44.6324 -50.7308 56.6816 -38.6816L-35.2423 53.2423C-22.9117 65.5728 -6.18796 72.5 11.25 72.5V-57.5ZM56.6816 -38.6816C68.7309 -26.6323 75.5 -10.29 75.5 6.75H-54.5C-54.5 24.1879 -47.5729 40.9117 -35.2423 53.2423L56.6816 -38.6816ZM75.5 6.75V1.8105H-54.5V6.75H75.5ZM-35.4619 47.7724L-29.7724 53.4619L62.1514 -38.4619L56.4619 -44.1514L-35.4619 47.7724Z" fill="#1D843E" mask="url(#path-1-inside-1)"/>
</svg>
