<svg width="36" height="41" viewBox="0 0 36 41" fill="none" xmlns="http://www.w3.org/2000/svg">
<path d="M8.72581 15.063C9.08501 15.025 9.41743 14.8553 9.65903 14.5868C9.90063 14.3183 10.0343 13.9699 10.0343 13.6087C10.0343 13.2475 9.90063 12.899 9.65903 12.6305C9.41743 12.362 9.08501 12.1924 8.72581 12.1544C8.52191 12.1328 8.31576 12.1543 8.12072 12.2176C7.92569 12.2808 7.74613 12.3844 7.59371 12.5215C7.44129 12.6587 7.31941 12.8263 7.23598 13.0136C7.15255 13.2009 7.10944 13.4036 7.10944 13.6087C7.10944 13.8137 7.15255 14.0165 7.23598 14.2037C7.31941 14.391 7.44129 14.5587 7.59371 14.6958C7.74613 14.833 7.92569 14.9365 8.12072 14.9998C8.31576 15.063 8.52191 15.0846 8.72581 15.063Z" fill="#137A3A"/>
<path d="M15.7293 2.04745e-06C12.7249 -0.00134361 9.75728 0.660634 7.03829 1.93867C4.3193 3.21671 1.91601 5.07928 0 7.39341C0.971704 7.54369 1.91109 7.85682 2.77862 8.31962C2.77862 8.31962 25.7713 11.4882 33.441 16.6555C31.4586 16.5092 29.4761 16.5092 27.4937 16.5092C25.0596 16.5633 22.6299 16.7423 20.2141 17.0455C17.8417 17.3055 15.4693 17.8417 13.0806 17.9717C11.8977 18.08 10.7097 18.1234 9.52206 18.1017C8.32455 18.1446 7.12592 18.0574 5.94723 17.8417C7.11691 18.1419 8.31533 18.3162 9.52206 18.3617C10.7047 18.4919 11.898 18.4919 13.0806 18.3617C14.2668 18.3617 15.4693 18.2317 16.6555 18.2317C17.8361 18.0804 19.024 17.9936 20.2141 17.9717C22.5901 17.8417 24.9715 17.8417 27.3475 17.9717L31.8485 18.3617C26.2913 20.2141 12.3494 25.1051 7.47466 29.5899C6.5371 30.7657 5.87282 32.1353 5.52995 33.5995C5.18708 35.0638 5.1742 36.5859 5.49225 38.0558C8.19777 39.6062 11.223 40.5149 14.3351 40.7121C17.4471 40.9092 20.5628 40.3895 23.4424 39.193C26.322 37.9964 28.8885 36.155 30.9443 33.8104C33.0002 31.4658 34.4905 28.6807 35.3005 25.6694C36.1105 22.6582 36.2186 19.5013 35.6165 16.4417C35.0144 13.3821 33.7181 10.5015 31.8275 8.0218C29.9368 5.54206 27.5023 3.52933 24.7114 2.13858C21.9204 0.747841 18.8475 0.0161993 15.7293 2.04745e-06V2.04745e-06Z" fill="#137A3A"/>
</svg>
