<svg xmlns="http://www.w3.org/2000/svg" viewBox="0 0 104.61 25.13"><defs><style>.cls-1{fill:#137a3a;}</style></defs><g id="Layer_1" data-name="Layer 1"><path d="M52.56,17.45H49.63L44.27,9.16A5.93,5.93,0,0,1,43.62,8h0a15.34,15.34,0,0,1,.08,2.11v7.32H40.93V4.2H44l5.13,8.05a8,8,0,0,1,.65,1.06h0a8.61,8.61,0,0,1-.09-1.79V4.2h2.77V17.45Z" transform="translate(-11.21 -2.45)"/><polygon points="52 15 44.28 15 44.28 1.75 51.76 1.75 51.76 4.19 47.2 4.19 47.2 7.12 51.43 7.12 51.43 9.55 47.2 9.55 47.2 12.56 52 12.56 52 15"/><path d="M82.57,4.2,79.15,17.45H75.9L73.78,8.91c-.08-.4-.16-1-.24-1.46h0c-.08.57-.16,1.14-.24,1.46l-2.2,8.54H67.77L64.35,4.2h3.17l1.79,8.86a7.69,7.69,0,0,1,.16,1.55h.09a5.64,5.64,0,0,1,.24-1.55l2.36-8.78h3.09l2.19,8.78a13,13,0,0,1,.25,1.47h0a9.18,9.18,0,0,1,.16-1.47L79.64,4.2Z" transform="translate(-11.21 -2.45)"/><path class="cls-1" d="M95,17.45H91.35l-3.74-5.77a3.9,3.9,0,0,1-.33-.73h-.16v6.5H84.19V4.2h2.93v6.26h.08c.08-.16.16-.41.33-.73L91.1,4.2h3.5l-4.47,6.34Z" transform="translate(-11.21 -2.45)"/><polygon class="cls-1" points="92.74 15 85.02 15 85.02 1.75 92.5 1.75 92.5 4.19 87.94 4.19 87.94 7.12 92.17 7.12 92.17 9.55 87.94 9.55 87.94 12.56 92.74 12.56 92.74 15"/><path class="cls-1" d="M115.82,4.2l-4.22,8.54v4.71h-2.93V12.82L104.6,4.2h3.34l2.11,5c0,.08.16.49.33,1.06h0a10.36,10.36,0,0,1,.24-1.06l2.11-5Z" transform="translate(-11.21 -2.45)"/><path class="cls-1" d="M16.58,11.72a.9.9,0,0,0,0-1.79.9.9,0,1,0,0,1.79Z" transform="translate(-11.21 -2.45)"/><path class="cls-1" d="M20.89,2.45A12.56,12.56,0,0,0,11.21,7a5.38,5.38,0,0,1,1.71.57S27.07,9.52,31.79,12.7c-1.22-.09-2.44-.09-3.66-.09a43.78,43.78,0,0,0-4.48.33c-1.46.16-2.92.49-4.39.57a20,20,0,0,1-2.19.08,10.19,10.19,0,0,1-2.2-.16,10.43,10.43,0,0,0,2.2.32,10,10,0,0,0,2.19,0c.73,0,1.47-.08,2.2-.08a20.16,20.16,0,0,1,2.19-.16,40.18,40.18,0,0,1,4.39,0l2.77.24c-3.42,1.14-12,4.15-15,6.91h0a6.24,6.24,0,0,0-1.22,5.21A12.54,12.54,0,1,0,20.89,2.45Z" transform="translate(-11.21 -2.45)"/><path class="cls-1" d="M44,22.5A1.79,1.79,0,0,1,44.71,24a1.79,1.79,0,0,1-1.89,1.88,1.77,1.77,0,0,1-1.37-.55A1.92,1.92,0,0,1,40.93,24h1a.9.9,0,0,0,.23.64.8.8,0,0,0,.66.26.86.86,0,0,0,.66-.23.84.84,0,0,0,.23-.61.85.85,0,0,0-.23-.61.83.83,0,0,0-.64-.24h-.38v-1h.38l.23,0a.62.62,0,0,0,.26-.52.53.53,0,0,0-.15-.39.58.58,0,0,0-.43-.15.57.57,0,0,0-.42.15.53.53,0,0,0-.15.39h-1a1.51,1.51,0,0,1,1.57-1.57,1.54,1.54,0,0,1,1.14.43,1.52,1.52,0,0,1,.11,2Z" transform="translate(-11.21 -2.45)"/><path class="cls-1" d="M48.43,25.79l-.29-1h-2l-.29,1H44.82l1.73-5.6h1.24l1.72,5.6Zm-1.94-2h1.35l-.68-2.34Z" transform="translate(-11.21 -2.45)"/><path class="cls-1" d="M53.7,20.19v5.6h-1V21.25H51v4.54H50v-5.6H53.7Z" transform="translate(-11.21 -2.45)"/><path class="cls-1" d="M58.92,25.06a2.51,2.51,0,0,1-3.75,0,3.2,3.2,0,0,1,0-4.14,2.51,2.51,0,0,1,3.75,0,3.17,3.17,0,0,1,0,4.14Zm-3.05-.75a1.55,1.55,0,0,0,1.17.51,1.52,1.52,0,0,0,1.17-.51,2.09,2.09,0,0,0,0-2.64A1.49,1.49,0,0,0,57,21.15a1.52,1.52,0,0,0-1.17.52,2.09,2.09,0,0,0,0,2.64Z" transform="translate(-11.21 -2.45)"/><path class="cls-1" d="M62.29,20.19a1.61,1.61,0,0,1,1.22.54,2,2,0,0,1,0,2.64,1.61,1.61,0,0,1-1.22.54h-.9v1.88h-1v-5.6h1.9Zm0,2.69a.65.65,0,0,0,.51-.24.86.86,0,0,0,.2-.59.85.85,0,0,0-.2-.59.65.65,0,0,0-.51-.24h-.9v1.66Z" transform="translate(-11.21 -2.45)"/><path class="cls-1" d="M67.35,20.19h1v5.6h-1V23.44H65.66v2.35h-1v-5.6h1v2.19h1.69Z" transform="translate(-11.21 -2.45)"/><path class="cls-1" d="M72.45,25.79l-.29-1h-2l-.29,1H68.84l1.73-5.6h1.24l1.73,5.6Zm-1.94-2h1.35l-.67-2.34Z" transform="translate(-11.21 -2.45)"/><path class="cls-1" d="M77.7,20.19v5.6h-1V23.85h-.48L74.8,25.79H73.6l1.57-2.06a1.74,1.74,0,0,1-.78-.67,1.84,1.84,0,0,1-.3-1,1.9,1.9,0,0,1,.5-1.32,1.59,1.59,0,0,1,1.21-.54Zm-1.87,2.69h.88V21.22h-.88a.69.69,0,0,0-.52.24.83.83,0,0,0-.22.59.81.81,0,0,0,.22.58A.67.67,0,0,0,75.83,22.88Z" transform="translate(-11.21 -2.45)"/><path class="cls-1" d="M83.62,25.79l-.29-1h-2l-.29,1H80l1.73-5.6H83l1.73,5.6Zm-1.94-2H83l-.68-2.34Z" transform="translate(-11.21 -2.45)"/><path class="cls-1" d="M87.1,20.19a1.59,1.59,0,0,1,1.21.54,2,2,0,0,1,0,2.64,1.59,1.59,0,0,1-1.21.54h-.9v1.88h-1v-5.6h1.9Zm0,2.69a.65.65,0,0,0,.51-.24.92.92,0,0,0,.2-.59.9.9,0,0,0-.2-.59.65.65,0,0,0-.51-.24h-.9v1.66Z" transform="translate(-11.21 -2.45)"/><path class="cls-1" d="M94.44,20.19v5.6h-1V22l-1.13,2.86H91.6L90.47,22v3.76h-1v-5.6h1.14L92,23.61l1.34-3.42Z" transform="translate(-11.21 -2.45)"/><path class="cls-1" d="M98.54,25.79l-.29-1H96.31l-.29,1H94.94l1.72-5.6h1.25l1.72,5.6Zm-1.93-2H98l-.68-2.34Z" transform="translate(-11.21 -2.45)"/><path class="cls-1" d="M102.83,20.19v1.06H101.6v4.54h-1V21.25H99.38V20.19h3.45Z" transform="translate(-11.21 -2.45)"/><path class="cls-1" d="M106.2,20.19h1l-1.53,4.06a2,2,0,0,1-2,1.54v-1a1,1,0,0,0,1.07-.66l-1.66-3.91h1l1.11,2.7Z" transform="translate(-11.21 -2.45)"/><path class="cls-1" d="M109.64,20.19a1.61,1.61,0,0,1,1.22.54,2,2,0,0,1,0,2.64,1.61,1.61,0,0,1-1.22.54h-.9v1.88h-1v-5.6h1.9Zm0,2.69a.65.65,0,0,0,.51-.24.87.87,0,0,0,.21-.59.85.85,0,0,0-.21-.59.65.65,0,0,0-.51-.24h-.9v1.66Z" transform="translate(-11.21 -2.45)"/><path class="cls-1" d="M114.74,25.79l-.3-1H112.5l-.29,1h-1.08l1.72-5.6h1.25l1.72,5.6Zm-1.94-2h1.35l-.68-2.34Z" transform="translate(-11.21 -2.45)"/></g></svg>