<svg width="50" height="50" viewBox="0 0 50 50" fill="none" xmlns="http://www.w3.org/2000/svg">
<path d="M18.5139 44.4443C20.2398 44.4443 21.6389 43.0452 21.6389 41.3193C21.6389 39.5934 20.2398 38.1943 18.5139 38.1943C16.788 38.1943 15.3889 39.5934 15.3889 41.3193C15.3889 43.0452 16.788 44.4443 18.5139 44.4443Z" fill="#1D843E"/>
<path d="M37.5 44.4443C39.2259 44.4443 40.625 43.0452 40.625 41.3193C40.625 39.5934 39.2259 38.1943 37.5 38.1943C35.7741 38.1943 34.375 39.5934 34.375 41.3193C34.375 43.0452 35.7741 44.4443 37.5 44.4443Z" fill="#1D843E"/>
<path d="M31.3471 9.72211C31.2839 9.26183 31.2514 8.79783 31.2499 8.33322C31.2514 7.86861 31.2839 7.40462 31.3471 6.94434H15.9583L16.861 9.72211H31.3471Z" fill="#1D843E"/>
<path d="M39 14C38.9054 13.8343 39.0022 13.7073 39 13.54C39.0022 13.3727 38.9054 13.1657 39 13H16L16.7667 14H39Z" fill="#1D843E"/>
<path d="M21 25C21.1657 24.9507 21.2927 25.0011 21.46 25C21.6273 25.0011 21.8343 24.9507 22 25L22 13L21 13L21 25Z" fill="#1D843E"/>
<path d="M26 25C26.1657 24.9506 26.2927 25.0011 26.46 25C26.6273 25.0011 26.8343 24.9506 27 25L27 13L26 13L26 25Z" fill="#1D843E"/>
<path d="M31 25C31.1657 24.9506 31.2927 25.0011 31.46 25C31.6273 25.0011 31.8343 24.9506 32 25L32 13L31 13L31 25Z" fill="#1D843E"/>
<path d="M36 25C36.1657 24.9506 36.2927 25.0011 36.46 25C36.6273 25.0011 36.8343 24.9506 37 25L37 13L36 13L36 25Z" fill="#1D843E"/>
<path d="M39 18C38.9095 17.8343 39.0021 17.7073 39 17.54C39.0021 17.3727 38.9095 17.1657 39 17H17L17.7333 18H39Z" fill="#1D843E"/>
<path d="M39 22C38.9136 21.8343 39.002 21.7073 39 21.54C39.002 21.3727 38.9136 21.1657 39 21H18L18.7 22H39Z" fill="#1D843E"/>
<path d="M41.6667 18.75H41.0833L39.3472 26.3889H18.5139L12.1667 6.2917C12.098 6.07845 11.9788 5.88497 11.8192 5.72777C11.6596 5.57057 11.4643 5.45432 11.25 5.38893L5.55557 3.63892C5.38047 3.58512 5.19649 3.56633 5.01413 3.58363C4.83178 3.60092 4.65461 3.65397 4.49275 3.73973C4.16587 3.91294 3.92118 4.20891 3.81251 4.56254C3.70385 4.91616 3.74011 5.29846 3.91332 5.62535C4.08653 5.95224 4.3825 6.19693 4.73612 6.30559L9.72223 7.83337L16.0972 27.9723L13.8195 29.8334L13.6389 30.0139C13.0755 30.6632 12.7561 31.4887 12.7358 32.3481C12.7156 33.2075 12.9956 34.0471 13.5278 34.7223C13.9063 35.1826 14.3874 35.548 14.9324 35.7892C15.4775 36.0303 16.0714 36.1406 16.6667 36.1111H39.8472C40.2156 36.1111 40.5689 35.9648 40.8293 35.7043C41.0898 35.4439 41.2361 35.0906 41.2361 34.7223C41.2361 34.3539 41.0898 34.0006 40.8293 33.7402C40.5689 33.4797 40.2156 33.3334 39.8472 33.3334H16.4445C16.2845 33.3279 16.1287 33.2813 15.992 33.198C15.8554 33.1148 15.7425 32.9977 15.6643 32.858C15.5861 32.7184 15.5453 32.561 15.5457 32.4009C15.5461 32.2409 15.5878 32.0837 15.6667 31.9445L19.0139 29.1667H40.4583C40.7794 29.1745 41.0933 29.0709 41.3465 28.8734C41.5997 28.6758 41.7767 28.3967 41.8472 28.0834L44.0278 18.4861C43.2534 18.6637 42.4612 18.7523 41.6667 18.75Z" fill="#1D843E"/>
<path d="M41.6667 15.2778C45.502 15.2778 48.6111 12.1687 48.6111 8.33336C48.6111 4.49805 45.502 1.38892 41.6667 1.38892C37.8314 1.38892 34.7222 4.49805 34.7222 8.33336C34.7222 12.1687 37.8314 15.2778 41.6667 15.2778Z" fill="#FF8A00"/>
</svg>
