<svg width="34" height="34" viewBox="0 0 34 34" fill="none" xmlns="http://www.w3.org/2000/svg">
<path d="M20.1973 7.42864C21.5926 7.70088 22.875 8.38329 23.8803 9.38855C24.8855 10.3938 25.5679 11.6762 25.8402 13.0715M20.1973 1.71436C23.0963 2.03641 25.7996 3.33461 27.8634 5.39579C29.9271 7.45698 31.2287 10.1587 31.5544 13.0572M30.1259 24.4572V28.7429C30.1275 29.1408 30.046 29.5346 29.8866 29.8991C29.7272 30.2637 29.4934 30.5909 29.2003 30.8599C28.9071 31.1288 28.561 31.3336 28.1841 31.4611C27.8072 31.5885 27.4078 31.6359 27.0116 31.6001C22.6156 31.1224 18.393 29.6203 14.683 27.2144C11.2313 25.021 8.30493 22.0946 6.11159 18.6429C3.69728 14.9161 2.1948 10.6729 1.72588 6.25721C1.69018 5.86217 1.73713 5.46401 1.86374 5.0881C1.99034 4.7122 2.19384 4.36677 2.46126 4.07381C2.72868 3.78086 3.05417 3.5468 3.41701 3.38653C3.77985 3.22626 4.17208 3.1433 4.56874 3.14293H8.85445C9.54774 3.1361 10.2199 3.38161 10.7455 3.83369C11.2712 4.28577 11.6146 4.91357 11.7116 5.60007C11.8925 6.97159 12.2279 8.31825 12.7116 9.61436C12.9038 10.1257 12.9454 10.6814 12.8315 11.2156C12.7175 11.7498 12.4528 12.2402 12.0687 12.6286L10.2544 14.4429C12.2881 18.0194 15.2494 20.9807 18.8259 23.0144L20.6402 21.2001C21.0286 20.816 21.519 20.5513 22.0532 20.4373C22.5874 20.3234 23.1431 20.365 23.6544 20.5572C24.9506 21.0409 26.2972 21.3763 27.6687 21.5572C28.3627 21.6551 28.9964 22.0046 29.4495 22.5393C29.9025 23.074 30.1433 23.7566 30.1259 24.4572Z" stroke="#1D843E" stroke-width="3" stroke-linecap="round" stroke-linejoin="round"/>
</svg>
