<svg width="30" height="31" viewBox="0 0 30 31" fill="none" xmlns="http://www.w3.org/2000/svg">
<mask id="path-1-inside-1" fill="white">
<path d="M5.08772 30.8042C3.78168 30.8042 2.62183 30.2801 1.60819 29.2318C0.536062 28.1231 0 26.7775 0 25.195C0 23.6125 0.536062 22.2669 1.60819 21.1582L18.4211 2.71287C19.2788 1.80573 20.268 1.22112 21.3889 0.959056C22.5097 0.696991 23.6452 0.767547 24.7953 1.17072C25.9454 1.5739 27.0078 2.26938 27.9825 3.25716C28.2943 3.59986 28.5819 3.97784 28.845 4.3911C29.1082 4.80435 29.3226 5.23777 29.4883 5.69134C29.654 6.14491 29.7807 6.62369 29.8684 7.12766C29.9561 7.63163 30 8.1356 30 8.63957C29.961 10.7764 29.2593 12.5605 27.8947 13.9917L15.1754 27.9618C15 28.1634 14.7856 28.2692 14.5322 28.2793C14.2788 28.2894 14.0595 28.2037 13.8743 28.0223C13.6891 27.8409 13.5916 27.6141 13.5819 27.3419C13.5721 27.0698 13.655 26.8329 13.8304 26.6313L26.5497 12.6613C27.5828 11.5727 28.1092 10.222 28.1287 8.60933C28.1481 6.99662 27.6511 5.67622 26.6374 4.64812C26.0136 3.98288 25.3216 3.47891 24.5614 3.13621C23.8012 2.79351 22.9825 2.68264 22.1053 2.80359C21.2281 2.92454 20.4483 3.3378 19.7661 4.04336L2.95322 22.4887C2.23197 23.2346 1.87135 24.1316 1.87135 25.1799C1.87135 26.2281 2.23197 27.1252 2.95322 27.8711C3.2846 28.2138 3.64522 28.4708 4.03509 28.6422C4.42495 28.8135 4.83431 28.879 5.26316 28.8387C6.12086 28.7984 6.92008 28.3851 7.66082 27.5989L21.0234 12.9032C21.1209 12.8024 21.2135 12.6965 21.3012 12.5857C21.3889 12.4748 21.4815 12.3438 21.5789 12.1926C21.6764 12.0414 21.7544 11.8801 21.8129 11.7088C21.8713 11.5374 21.9103 11.3661 21.9298 11.1947C21.9493 11.0234 21.9201 10.847 21.8421 10.6655C21.7641 10.4841 21.6472 10.3128 21.4912 10.1515C21.1209 9.7483 20.7602 9.56688 20.4094 9.60719C20.039 9.64751 19.6199 9.8995 19.152 10.3631L9.09357 21.4303C8.97661 21.5513 8.84016 21.637 8.68421 21.6874C8.52826 21.7378 8.36745 21.7428 8.20175 21.7025C8.03606 21.6622 7.89474 21.5815 7.77778 21.4606C7.58285 21.2792 7.48538 21.0574 7.48538 20.7953C7.48538 20.5333 7.5731 20.3015 7.74854 20.0999L17.807 9.00243C18.6062 8.19607 19.4152 7.75258 20.2339 7.67195C21.1696 7.59131 22.0273 7.95417 22.807 8.76052C23.5478 9.5064 23.8743 10.3833 23.7866 11.3912C23.6988 12.3992 23.2261 13.3467 22.3684 14.2336L9.00585 28.9597C7.91423 30.0886 6.69591 30.6933 5.35088 30.774C5.31189 30.774 5.26803 30.779 5.2193 30.7891C5.17057 30.7992 5.12671 30.8042 5.08772 30.8042Z"/>
</mask>
<path d="M1.60819 21.1582L3.76481 23.2436L3.79556 23.2118L3.82535 23.1791L1.60819 21.1582ZM18.4211 2.71287L16.2412 0.651797L16.2223 0.671696L16.2039 0.691936L18.4211 2.71287ZM27.9825 3.25716L30.2012 1.23792L30.1604 1.19316L30.1179 1.15008L27.9825 3.25716ZM30 8.63957L32.9995 8.69429L33 8.66693V8.63957H30ZM27.8947 13.9917L25.7234 11.9217L25.6996 11.9466L25.6764 11.972L27.8947 13.9917ZM15.1754 27.9618L12.9571 25.9421L12.9345 25.967L12.9124 25.9923L15.1754 27.9618ZM13.8304 26.6313L11.6121 24.6116L11.5895 24.6365L11.5674 24.6619L13.8304 26.6313ZM26.5497 12.6613L24.3737 10.5961L24.3523 10.6186L24.3314 10.6416L26.5497 12.6613ZM26.6374 4.64812L24.449 6.70015L24.4747 6.72759L24.5011 6.75437L26.6374 4.64812ZM19.7661 4.04336L17.6095 1.95794L17.5787 1.98973L17.5489 2.02242L19.7661 4.04336ZM2.95322 22.4887L5.10984 24.5741L5.14059 24.5423L5.17038 24.5096L2.95322 22.4887ZM5.26316 28.8387L5.12229 25.842L5.05221 25.8453L4.98236 25.8519L5.26316 28.8387ZM7.66082 27.5989L9.84432 29.6562L9.86255 29.6369L9.88043 29.6172L7.66082 27.5989ZM21.0234 12.9032L18.8668 10.8177L18.8348 10.8508L18.8038 10.8849L21.0234 12.9032ZM21.4912 10.1515L19.2819 12.181L19.3079 12.2093L19.3346 12.2369L21.4912 10.1515ZM20.4094 9.60719L20.734 12.5896L20.7429 12.5886L20.7518 12.5876L20.4094 9.60719ZM19.152 10.3631L17.0403 8.23232L16.9846 8.28746L16.932 8.34542L19.152 10.3631ZM9.09357 21.4303L11.2502 23.5158L11.2824 23.4824L11.3136 23.4481L9.09357 21.4303ZM7.77778 21.4606L9.93441 19.3752L9.8795 19.3184L9.82168 19.2646L7.77778 21.4606ZM7.74854 20.0999L5.52572 18.0851L5.50539 18.1076L5.48552 18.1304L7.74854 20.0999ZM17.807 9.00243L15.6763 6.89055L15.6292 6.9381L15.5842 6.98771L17.807 9.00243ZM20.2339 7.67195L19.9763 4.68302L19.9581 4.6846L19.9399 4.68639L20.2339 7.67195ZM22.807 8.76052L20.6504 10.8459L20.6643 10.8603L20.6784 10.8745L22.807 8.76052ZM22.3684 14.2336L20.2118 12.1482L20.1787 12.1824L20.1467 12.2177L22.3684 14.2336ZM9.00585 28.9597L11.1625 31.0451L11.1955 31.0109L11.2275 30.9756L9.00585 28.9597ZM5.35088 30.774V33.774H5.44072L5.53041 33.7686L5.35088 30.774ZM5.08772 27.8042C4.69339 27.8042 4.28565 27.685 3.76481 27.1464L-0.548441 31.3172C0.958012 32.8751 2.86996 33.8042 5.08772 33.8042V27.8042ZM3.76481 27.1464C3.24914 26.6131 3 26.0218 3 25.195H-3C-3 27.5331 -2.17702 29.633 -0.548441 31.3172L3.76481 27.1464ZM3 25.195C3 24.3682 3.24914 23.7769 3.76481 23.2436L-0.548441 19.0728C-2.17702 20.757 -3 22.8569 -3 25.195H3ZM3.82535 23.1791L20.6382 4.73381L16.2039 0.691936L-0.608976 19.1373L3.82535 23.1791ZM20.601 4.77395C21.0904 4.25626 21.5721 3.99714 22.0719 3.88027L20.7059 -1.96216C18.964 -1.5549 17.4671 -0.644807 16.2412 0.651797L20.601 4.77395ZM22.0719 3.88027C22.6038 3.7559 23.1582 3.7758 23.8029 4.00181L25.7878 -1.66036C24.1323 -2.24071 22.4157 -2.36192 20.7059 -1.96216L22.0719 3.88027ZM23.8029 4.00181C24.4656 4.23412 25.1486 4.65642 25.847 5.36425L30.1179 1.15008C28.867 -0.117657 27.4253 -1.08632 25.7878 -1.66036L23.8029 4.00181ZM25.7638 5.2764C25.9539 5.48531 26.1382 5.72563 26.3145 6.00249L31.3755 2.7797C31.0255 2.23005 30.6348 1.71441 30.2012 1.23792L25.7638 5.2764ZM26.3145 6.00249C26.4628 6.23539 26.5803 6.47394 26.6704 6.72072L32.3062 4.66196C32.0649 4.00159 31.7535 3.37331 31.3755 2.7797L26.3145 6.00249ZM26.6704 6.72072C26.7716 6.99751 26.8539 7.3032 26.9129 7.64209L32.824 6.61322C32.7075 5.94417 32.5364 5.29231 32.3062 4.66196L26.6704 6.72072ZM26.9129 7.64209C26.9715 7.97874 27 8.31061 27 8.63957H33C33 7.96058 32.9408 7.28452 32.824 6.61322L26.9129 7.64209ZM27.0005 8.58484C26.974 10.036 26.5251 11.0807 25.7234 11.9217L30.0661 16.0618C31.9934 14.0402 32.948 11.5168 32.9995 8.69429L27.0005 8.58484ZM25.6764 11.972L12.9571 25.9421L17.3937 29.9815L30.113 16.0114L25.6764 11.972ZM12.9124 25.9923C13.055 25.8286 13.2664 25.6448 13.5553 25.5022C13.8475 25.358 14.1456 25.2923 14.4129 25.2817L14.6514 31.2769C15.779 31.2321 16.7532 30.7186 17.4385 29.9313L12.9124 25.9923ZM14.4129 25.2817C14.6673 25.2716 14.9646 25.3093 15.2693 25.4283C15.5725 25.5467 15.807 25.716 15.9737 25.8793L11.7748 30.1652C12.5354 30.9104 13.5517 31.3207 14.6514 31.2769L14.4129 25.2817ZM15.9737 25.8793C16.1462 26.0483 16.3052 26.2679 16.4185 26.5316C16.5307 26.7927 16.5729 27.038 16.5799 27.2345L10.5838 27.4493C10.6195 28.4473 11.0104 29.4163 11.7748 30.1652L15.9737 25.8793ZM16.5799 27.2345C16.5873 27.4396 16.5604 27.6877 16.4685 27.9506C16.3762 28.2145 16.2393 28.4332 16.0934 28.6008L11.5674 24.6619C10.882 25.4495 10.5474 26.4328 10.5838 27.4493L16.5799 27.2345ZM16.0487 28.651L28.768 14.6809L24.3314 10.6416L11.6121 24.6116L16.0487 28.651ZM28.7257 14.7264C30.3202 13.0464 31.1006 10.9526 31.1284 8.64559L25.1289 8.57307C25.1178 9.49151 24.8454 10.099 24.3737 10.5961L28.7257 14.7264ZM31.1284 8.64559C31.1564 6.33481 30.4179 4.20948 28.7737 2.54187L24.5011 6.75437C24.8843 7.14297 25.1399 7.65844 25.1289 8.57307L31.1284 8.64559ZM28.8258 2.59609C27.9571 1.66961 26.9473 0.921031 25.7943 0.401246L23.3285 5.87117C23.6959 6.03679 24.0702 6.29615 24.449 6.70015L28.8258 2.59609ZM25.7943 0.401246C24.4874 -0.187877 23.0955 -0.361332 21.6955 -0.168293L22.515 5.77547C22.8694 5.7266 23.115 5.7749 23.3285 5.87117L25.7943 0.401246ZM21.6955 -0.168293C20.0807 0.0543635 18.7048 0.82516 17.6095 1.95794L21.9227 6.12877C22.1919 5.85043 22.3754 5.79472 22.515 5.77547L21.6955 -0.168293ZM17.5489 2.02242L0.736054 20.4677L5.17038 24.5096L21.9832 6.06429L17.5489 2.02242ZM0.796589 20.4033C-0.471831 21.715 -1.12865 23.3624 -1.12865 25.1799H4.87135C4.87135 24.9009 4.93577 24.7541 5.10984 24.5741L0.796589 20.4033ZM-1.12865 25.1799C-1.12865 26.9974 -0.471831 28.6448 0.796589 29.9565L5.10984 25.7857C4.93577 25.6057 4.87135 25.4589 4.87135 25.1799H-1.12865ZM0.796589 29.9565C1.36633 30.5457 2.04157 31.043 2.82799 31.3886L5.24218 25.8957C5.24186 25.8956 5.23964 25.8946 5.23535 25.8921C5.23102 25.8897 5.2237 25.8852 5.21341 25.8779C5.19305 25.8634 5.15787 25.8353 5.10984 25.7857L0.796589 29.9565ZM2.82799 31.3886C3.69087 31.7678 4.61287 31.9131 5.54396 31.8255L4.98236 25.8519C5.00976 25.8493 5.05412 25.8488 5.10861 25.8575C5.16329 25.8663 5.2094 25.8813 5.24218 25.8957L2.82799 31.3886ZM5.40402 31.8354C7.22609 31.7498 8.7145 30.8554 9.84432 29.6562L5.47732 25.5417C5.29402 25.7362 5.17316 25.8103 5.12793 25.8337C5.09319 25.8517 5.09907 25.8431 5.12229 25.842L5.40402 31.8354ZM9.88043 29.6172L23.243 14.9214L18.8038 10.8849L5.44121 25.5807L9.88043 29.6172ZM23.18 14.9886C23.3471 14.8158 23.5051 14.6351 23.6539 14.447L18.9485 10.7243C18.9218 10.7579 18.8946 10.7889 18.8668 10.8177L23.18 14.9886ZM23.6539 14.447C23.8152 14.2432 23.9639 14.0298 24.1004 13.818L19.0575 10.5671C18.9991 10.6577 18.9626 10.7064 18.9485 10.7243L23.6539 14.447ZM24.1004 13.818C24.331 13.4604 24.5153 13.0785 24.6521 12.6777L18.9737 10.7398C18.9935 10.6817 19.0219 10.6223 19.0575 10.5671L24.1004 13.818ZM24.6521 12.6777C24.7768 12.3123 24.8655 11.93 24.9106 11.5338L18.9491 10.8556C18.9551 10.8021 18.9659 10.7625 18.9737 10.7398L24.6521 12.6777ZM24.9106 11.5338C24.9972 10.7723 24.8521 10.0715 24.5983 9.48099L19.0859 11.8501C18.988 11.6224 18.9014 11.2744 18.9491 10.8556L24.9106 11.5338ZM24.5983 9.48099C24.3586 8.92316 24.0226 8.45357 23.6479 8.06607L19.3346 12.2369C19.2718 12.1719 19.1697 12.045 19.0859 11.8501L24.5983 9.48099ZM23.7005 8.12195C23.048 7.41167 21.8062 6.42695 20.0669 6.6268L20.7518 12.5876C20.2666 12.6433 19.8599 12.5264 19.5947 12.393C19.3583 12.274 19.2603 12.1575 19.2819 12.181L23.7005 8.12195ZM20.0847 6.62481C18.6891 6.77673 17.6596 7.61852 17.0403 8.23232L21.2638 12.494C21.382 12.3768 21.416 12.3657 21.3631 12.3975C21.3115 12.4285 21.0937 12.5504 20.734 12.5896L20.0847 6.62481ZM16.932 8.34542L6.87349 19.4126L11.3136 23.4481L21.3721 12.3809L16.932 8.34542ZM6.93694 19.3449C7.15256 19.1219 7.4366 18.9378 7.76168 18.8327L9.60675 24.542C10.2437 24.3362 10.8007 23.9806 11.2502 23.5158L6.93694 19.3449ZM7.76168 18.8327C8.15562 18.7054 8.56059 18.7023 8.91105 18.7875L7.49246 24.6174C8.1743 24.7833 8.90091 24.7701 9.60675 24.542L7.76168 18.8327ZM8.91105 18.7875C9.28864 18.8794 9.65144 19.0825 9.93441 19.3752L5.62115 23.546C6.13803 24.0805 6.78349 24.4449 7.49246 24.6174L8.91105 18.7875ZM9.82168 19.2646C9.99336 19.4244 10.1736 19.6522 10.3049 19.9511C10.4367 20.251 10.4854 20.5452 10.4854 20.7953H4.48538C4.48538 21.9056 4.94037 22.9181 5.73388 23.6566L9.82168 19.2646ZM10.4854 20.7953C10.4854 21.006 10.4488 21.2442 10.357 21.4866C10.2656 21.7282 10.1388 21.9231 10.0116 22.0693L5.48552 18.1304C4.84516 18.8662 4.48538 19.7938 4.48538 20.7953H10.4854ZM9.97136 22.1146L20.0298 11.0171L15.5842 6.98771L5.52572 18.0851L9.97136 22.1146ZM19.9377 11.1143C20.4308 10.6169 20.6282 10.6476 20.528 10.6575L19.9399 4.68639C18.2022 4.85753 16.7817 5.77528 15.6763 6.89055L19.9377 11.1143ZM20.4915 10.6609C20.4923 10.6608 20.4781 10.6618 20.4547 10.6582C20.4312 10.6545 20.4149 10.6486 20.4101 10.6465C20.3997 10.6422 20.4848 10.6747 20.6504 10.8459L24.9636 6.67511C23.6916 5.3596 21.9893 4.50955 19.9763 4.68302L20.4915 10.6609ZM20.6784 10.8745C20.7339 10.9304 20.7637 10.9706 20.7784 10.9929C20.7926 11.0145 20.796 11.0244 20.796 11.0244C20.7963 11.0251 20.7965 11.0257 20.7967 11.0267C20.797 11.0278 20.7977 11.031 20.7985 11.0369C20.7999 11.048 20.8025 11.0777 20.7978 11.1311L26.7753 11.6514C26.9429 9.72546 26.2705 7.99069 24.9357 6.64654L20.6784 10.8745ZM20.7978 11.1311C20.7821 11.3123 20.6995 11.6439 20.2118 12.1482L24.525 16.3191C25.7528 15.0494 26.6156 13.4861 26.7753 11.6514L20.7978 11.1311ZM20.1467 12.2177L6.78417 26.9437L11.2275 30.9756L24.5901 16.2496L20.1467 12.2177ZM6.84922 26.8743C6.18755 27.5585 5.6443 27.751 5.17135 27.7793L5.53041 33.7686C7.74751 33.6357 9.64091 32.6186 11.1625 31.0451L6.84922 26.8743ZM5.35088 27.774C5.06083 27.774 4.8084 27.8106 4.61167 27.8513L5.82693 33.7269C5.72766 33.7474 5.56295 33.774 5.35088 33.774V27.774ZM4.61167 27.8513C4.71094 27.8307 4.87564 27.8042 5.08772 27.8042V33.8042C5.37777 33.8042 5.63019 33.7676 5.82693 33.7269L4.61167 27.8513Z" fill="#1D843E" mask="url(#path-1-inside-1)"/>
</svg>
