<svg width="28" height="39" viewBox="0 0 28 39" fill="none" xmlns="http://www.w3.org/2000/svg">
<path d="M13.9999 5.83997C12.6778 5.83997 11.3853 6.23203 10.286 6.96659C9.18662 7.70115 8.32978 8.7452 7.82381 9.96673C7.31784 11.1883 7.18545 12.5324 7.44339 13.8291C7.70134 15.1259 8.33802 16.3171 9.27294 17.252C10.2079 18.1869 11.399 18.8236 12.6958 19.0815C13.9925 19.3395 15.3367 19.2071 16.5582 18.7011C17.7797 18.1951 18.8238 17.3383 19.5583 16.239C20.2929 15.1396 20.6849 13.8471 20.6849 12.525C20.6849 10.752 19.9806 9.05164 18.727 7.79796C17.4733 6.54428 15.7729 5.83997 13.9999 5.83997ZM13.9999 16.8766C13.1393 16.8766 12.2979 16.6214 11.5823 16.1432C10.8667 15.6651 10.3089 14.9854 9.97953 14.1903C9.65016 13.3951 9.56398 12.5201 9.73189 11.676C9.8998 10.8319 10.3143 10.0565 10.9229 9.44787C11.5314 8.83928 12.3068 8.42483 13.151 8.25692C13.9951 8.08901 14.8701 8.17518 15.6653 8.50455C16.4604 8.83392 17.1401 9.39168 17.6182 10.1073C18.0964 10.8229 18.3516 11.6643 18.3516 12.525C18.3485 13.6771 17.8887 14.7809 17.0729 15.5945C16.2572 16.4081 15.1521 16.865 13.9999 16.865V16.8766Z" fill="#1D843E"/>
<path d="M13.9999 0.333313C10.366 0.336348 6.88091 1.77728 4.30587 4.34139C1.73083 6.9055 0.275084 10.3844 0.256592 14.0183C0.256592 19.4666 3.31326 24.0283 5.55326 27.3533L5.96159 27.96C8.19025 31.19 10.5811 34.3051 13.1249 37.2933L14.0116 38.3316L14.8983 37.2933C17.4418 34.3049 19.8326 31.1898 22.0616 27.96L22.4699 27.3416C24.6983 24.0166 27.7549 19.4666 27.7549 14.0183C27.7364 10.3824 26.2791 6.90172 23.7015 4.33728C21.124 1.77284 17.6359 0.333266 13.9999 0.333313ZM20.5216 26L20.1016 26.6183C18.0949 29.6283 15.4349 33 13.9999 34.6683C12.6233 33 9.90493 29.6283 7.89826 26.6183L7.48993 26C5.42493 22.92 2.58993 18.7083 2.58993 13.9716C2.58993 12.4733 2.88505 10.9896 3.45846 9.60523C4.03187 8.2209 4.87232 6.96307 5.93184 5.90356C6.99135 4.84404 8.24918 4.00359 9.63351 3.43018C11.0178 2.85677 12.5015 2.56165 13.9999 2.56165C15.4983 2.56165 16.982 2.85677 18.3663 3.43018C19.7507 4.00359 21.0085 4.84404 22.068 5.90356C23.1275 6.96307 23.968 8.2209 24.5414 9.60523C25.1148 10.9896 25.4099 12.4733 25.4099 13.9716C25.4099 18.755 22.5866 22.9666 20.5216 26Z" fill="#1D843E"/>
</svg>
