<svg width="24" height="25" viewBox="0 0 24 25" fill="none" xmlns="http://www.w3.org/2000/svg">
<path d="M12.0001 8.61134e-09C13.0771 -6.70947e-05 14.1132 0.392042 14.8961 1.09589C15.6789 1.79974 16.149 2.76197 16.2099 3.78519L16.2164 4.01235H23.0273C23.2738 4.01242 23.5111 4.10154 23.6913 4.26169C23.8714 4.42185 23.9809 4.64111 23.9977 4.87516C24.0145 5.10921 23.9374 5.34061 23.7818 5.52259C23.6262 5.70458 23.4039 5.82358 23.1596 5.85556L23.0273 5.8642H21.9947L20.3341 21.9383C20.2509 22.7396 19.8711 23.4868 19.2625 24.0463C18.6539 24.6057 17.8561 24.9411 17.0117 24.9926L16.7833 25H7.21695C6.37041 25 5.55145 24.7135 4.90645 24.1917C4.26144 23.67 3.83242 22.9469 3.69605 22.1519L3.66621 21.937L2.00435 5.8642H0.972985C0.737863 5.86419 0.510698 5.78316 0.333499 5.63609C0.156301 5.48902 0.0410577 5.28587 0.00908115 5.0642L0 4.93827C9.91523e-06 4.71452 0.0851591 4.49834 0.239701 4.32972C0.394242 4.16109 0.607722 4.05142 0.840659 4.02099L0.972985 4.01235H7.78388C7.78388 2.94821 8.22809 1.92765 9.0188 1.17519C9.8095 0.422728 10.8819 8.61134e-09 12.0001 8.61134e-09ZM20.0396 5.8642H3.9594L5.6031 21.7556C5.63949 22.1101 5.80369 22.4418 6.06782 22.6943C6.33196 22.9468 6.67976 23.1045 7.0522 23.1407L7.21695 23.1481H16.7833C17.5617 23.1481 18.2221 22.6235 18.3726 21.9111L18.3985 21.7556L20.0383 5.8642H20.0396ZM14.2704 9.25926C14.5056 9.25927 14.7327 9.3403 14.9099 9.48737C15.0871 9.63443 15.2024 9.83759 15.2344 10.0593L15.2434 10.1852V18.8272C15.2434 19.0618 15.1497 19.2876 14.9814 19.459C14.8131 19.6304 14.5827 19.7347 14.3368 19.7506C14.0908 19.7666 13.8477 19.6932 13.6564 19.5451C13.4652 19.3971 13.3401 19.1855 13.3065 18.9531L13.2975 18.8272V10.1852C13.2975 9.93961 13.4 9.7041 13.5824 9.53046C13.7649 9.35681 14.0124 9.25926 14.2704 9.25926ZM9.72985 9.25926C9.96497 9.25927 10.1921 9.3403 10.3693 9.48737C10.5465 9.63443 10.6618 9.83759 10.6938 10.0593L10.7028 10.1852V18.8272C10.7028 19.0618 10.6091 19.2876 10.4408 19.459C10.2725 19.6304 10.0421 19.7347 9.79617 19.7506C9.55022 19.7666 9.30707 19.6932 9.11583 19.5451C8.9246 19.3971 8.79955 19.1855 8.76595 18.9531L8.75686 18.8272V10.1852C8.75686 9.93961 8.85938 9.7041 9.04185 9.53046C9.22432 9.35681 9.4718 9.25926 9.72985 9.25926ZM12.0001 1.85185C11.4304 1.85187 10.8815 2.05577 10.4623 2.42306C10.0432 2.79036 9.78452 3.2942 9.73763 3.83457L9.72985 4.01235H14.2704C14.2704 3.43935 14.0313 2.88982 13.6055 2.48465C13.1797 2.07947 12.6023 1.85185 12.0001 1.85185Z" fill="#1D843E"/>
</svg>
