<svg width="200" height="173" viewBox="0 0 200 173" fill="none" xmlns="http://www.w3.org/2000/svg">
<g clip-path="url(#clip0)">
<path d="M1.65317 99.701V18.1079C1.65208 15.9473 2.07696 13.8077 2.90353 11.8112C3.7301 9.81476 4.94216 8.00063 6.47046 6.47247C7.99877 4.9443 9.81337 3.73205 11.8106 2.90497C13.8078 2.07789 15.9485 1.65219 18.1104 1.65219H181.89C184.051 1.65219 186.192 2.07789 188.189 2.90497C190.187 3.73205 192.001 4.9443 193.53 6.47247C195.058 8.00063 196.27 9.81476 197.096 11.8112C197.923 13.8077 198.348 15.9473 198.347 18.1079V114.381C198.345 118.742 196.61 122.924 193.524 126.008C190.438 129.092 186.254 130.826 181.89 130.828H18.1104C13.7464 130.826 9.56167 129.092 6.47581 126.008C3.38994 122.924 1.65536 118.742 1.65317 114.381V110.366L181.683 110.168" stroke="black" stroke-width="4" stroke-linecap="round" stroke-linejoin="round"/>
<path d="M177.153 171.348H24.2354C25.3611 167.566 27.5989 164.21 30.658 161.716L30.7406 161.65C33.7541 159.316 37.4675 158.067 41.2795 158.106H161.134" stroke="black" stroke-width="4" stroke-linecap="round" stroke-linejoin="round"/>
<path d="M52.3392 158.106L71.6069 130.828" stroke="black" stroke-width="4" stroke-linecap="round" stroke-linejoin="round"/>
<path d="M146.322 158.106L127.054 130.828" stroke="black" stroke-width="4" stroke-linecap="round" stroke-linejoin="round"/>
<path d="M149.322 14.6879H163.374C164.56 14.6879 165.735 14.9215 166.83 15.3754C167.926 15.8292 168.921 16.4944 169.76 17.333C170.598 18.1715 171.263 19.167 171.716 20.2624C172.169 21.3578 172.401 22.5317 172.4 23.7171V88.7057C172.4 91.0982 171.449 93.3927 169.757 95.0844C168.064 96.7762 165.768 97.7266 163.374 97.7266H149.727" stroke="#137A3A" stroke-width="4" stroke-miterlimit="10" stroke-linecap="round"/>
<path d="M109.448 91.0105C128.676 91.0105 144.264 75.4322 144.264 56.2155C144.264 36.9988 128.676 21.4205 109.448 21.4205C90.2197 21.4205 74.6322 36.9988 74.6322 56.2155C74.6322 75.4322 90.2197 91.0105 109.448 91.0105Z" stroke="#137A3A" stroke-width="4" stroke-miterlimit="10"/>
<path d="M118.061 48.1859C117.978 43.0311 113.845 39.0245 109.225 39.0493C107.187 39.1043 105.231 39.8638 103.691 41.1984C102.15 42.533 101.12 44.3602 100.777 46.3685C100.083 51.4324 105.166 55.0342 105.422 55.2077C109.092 57.6859 111.779 55.9677 115.052 58.8177C116.852 60.3579 117.979 62.5394 118.193 64.8977C118.367 69.0282 115.019 73.8773 110.002 74.1417C104.984 74.406 100.579 70.0608 100.802 64.6334" stroke="black" stroke-width="4" stroke-linecap="round" stroke-linejoin="round"/>
<path d="M109.225 39.0576V30.9371" stroke="black" stroke-width="4" stroke-linecap="round" stroke-linejoin="round"/>
<path d="M109.993 74.1417V80.8826" stroke="black" stroke-width="4" stroke-linecap="round" stroke-linejoin="round"/>
<path d="M77.5169 18.9175H59.0511" stroke="black" stroke-width="4" stroke-linecap="round" stroke-linejoin="round"/>
<path d="M63.8701 36.7528H38.3782" stroke="black" stroke-width="4" stroke-linecap="round" stroke-linejoin="round"/>
<path d="M57.0508 56.2155H21.7226" stroke="black" stroke-width="4" stroke-linecap="round" stroke-linejoin="round"/>
<path d="M63.8701 77.5121H35.5761" stroke="black" stroke-width="4" stroke-linecap="round" stroke-linejoin="round"/>
<path d="M74.1114 93.5052H59.0511" stroke="black" stroke-width="4" stroke-linecap="round" stroke-linejoin="round"/>
<path d="M97.9501 118.643C98.0371 118.643 98.1221 118.617 98.1943 118.569C98.2665 118.52 98.3226 118.451 98.3555 118.371C98.3884 118.29 98.3966 118.202 98.379 118.117C98.3614 118.032 98.3189 117.954 98.2568 117.893C98.1947 117.832 98.1159 117.791 98.0304 117.775C97.9448 117.759 97.8565 117.769 97.7766 117.803C97.6967 117.838 97.6289 117.895 97.5818 117.968C97.5346 118.041 97.5103 118.127 97.512 118.214C97.512 118.271 97.5234 118.327 97.5455 118.38C97.5676 118.433 97.6 118.48 97.6408 118.52C97.6816 118.56 97.7299 118.592 97.783 118.613C97.8362 118.634 97.8929 118.644 97.9501 118.643Z" fill="#137A3A"/>
<path d="M100.033 114.141C99.1282 114.146 98.2359 114.353 97.4209 114.746C96.6059 115.139 95.8888 115.708 95.3215 116.413C95.6144 116.45 95.8962 116.548 96.1481 116.702C96.1481 116.702 102.984 117.668 105.307 119.18C104.728 119.131 104.149 119.131 103.513 119.131C102.877 119.131 102.108 119.23 101.331 119.279C100.554 119.329 99.9256 119.519 99.1982 119.568C98.8444 119.61 98.4881 119.626 98.1319 119.618C97.7736 119.634 97.4148 119.601 97.0656 119.519C97.4172 119.593 97.7735 119.642 98.1319 119.668C98.4856 119.717 98.8445 119.717 99.1982 119.668C99.5371 119.668 99.9256 119.618 100.265 119.618C100.617 119.56 100.973 119.527 101.331 119.519C102.041 119.469 102.753 119.469 103.463 119.519C103.916 119.577 104.371 119.61 104.827 119.618C103.174 120.147 99.0412 121.601 97.5533 122.964C97.278 123.308 97.0825 123.708 96.981 124.137C96.8795 124.565 96.8745 125.011 96.9664 125.442C97.7701 125.908 98.6703 126.183 99.5973 126.246C100.524 126.309 101.453 126.158 102.313 125.804C103.172 125.451 103.938 124.905 104.553 124.208C105.167 123.511 105.613 122.683 105.856 121.787C106.098 120.89 106.132 119.95 105.953 119.039C105.774 118.128 105.388 117.27 104.824 116.531C104.26 115.793 103.534 115.194 102.702 114.781C101.87 114.368 100.954 114.152 100.025 114.149L100.033 114.141Z" fill="#137A3A"/>
</g>
<defs>
<clipPath id="clip0">
<rect width="200" height="173" fill="white"/>
</clipPath>
</defs>
</svg>
