<svg width="167" height="185" viewBox="0 0 167 185" fill="none" xmlns="http://www.w3.org/2000/svg">
<g clip-path="url(#clip0)">
<path d="M13.9928 117.102V37.6874C13.9928 27.5167 20.7314 19.127 30.3275 17.14" stroke="black" stroke-width="4" stroke-miterlimit="10" stroke-linecap="round"/>
<path d="M152.779 77.7886V162.421C152.781 165.192 152.237 167.936 151.177 170.496C150.118 173.056 148.564 175.383 146.605 177.343C144.645 179.303 142.319 180.858 139.758 181.919C137.197 182.98 134.452 183.527 131.679 183.528H35.0998C32.328 183.528 29.5833 182.983 27.0225 181.923C24.4617 180.863 22.1349 179.309 20.1749 177.35C18.2149 175.392 16.6602 173.067 15.5995 170.508C14.5387 167.949 13.9928 165.206 13.9928 162.436V148.556" stroke="black" stroke-width="4" stroke-miterlimit="10" stroke-linecap="round"/>
<path d="M137.571 17.427C145.834 19.8114 152.02 25.147 152.735 34.0003" stroke="black" stroke-width="4" stroke-miterlimit="10" stroke-linecap="round"/>
<path d="M29.3774 104.054V21.6881C29.3765 20.1982 29.6693 18.7227 30.2392 17.3459C30.8091 15.9691 31.6449 14.718 32.6988 13.6642C33.7528 12.6103 35.0042 11.7743 36.3816 11.2039C37.759 10.6335 39.2353 10.3399 40.7263 10.3399H62.0837" stroke="black" stroke-width="4" stroke-miterlimit="10" stroke-linecap="round"/>
<path d="M137.571 88.7762L137.424 157.873C137.425 159.363 137.132 160.839 136.562 162.216C135.992 163.592 135.156 164.843 134.102 165.897C133.048 166.951 131.797 167.787 130.42 168.358C129.042 168.928 127.566 169.221 126.075 169.221H40.7263C39.2353 169.221 37.759 168.928 36.3816 168.358C35.0042 167.787 33.7528 166.951 32.6988 165.897C31.6449 164.843 30.8091 163.592 30.2392 162.216C29.6693 160.839 29.3765 159.363 29.3774 157.873V124.97" stroke="black" stroke-width="4" stroke-miterlimit="10" stroke-linecap="round"/>
<path d="M104.85 10.3399H126.053C129.063 10.3399 131.949 11.5348 134.078 13.6616C136.206 15.7884 137.402 18.673 137.402 21.6807V38.0627" stroke="black" stroke-width="4" stroke-miterlimit="10" stroke-linecap="round"/>
<path d="M53.9679 107.52V157.321" stroke="black" stroke-width="4" stroke-miterlimit="10" stroke-linecap="round"/>
<path d="M94.3849 90.6528V157.321" stroke="black" stroke-width="4" stroke-miterlimit="10" stroke-linecap="round"/>
<path d="M114.24 123.983V157.321" stroke="black" stroke-width="4" stroke-miterlimit="10" stroke-linecap="round"/>
<path d="M74.7582 157.321V95.061" stroke="black" stroke-width="4" stroke-miterlimit="10" stroke-linecap="round"/>
<path d="M98.3324 1.47186H68.6161C65.0165 1.47186 62.0984 4.38785 62.0984 7.98491V13.5486C62.0984 17.1457 65.0165 20.0616 68.6161 20.0616H98.3324C101.932 20.0616 104.85 17.1457 104.85 13.5486V7.98491C104.85 4.38785 101.932 1.47186 98.3324 1.47186Z" stroke="black" stroke-width="4" stroke-miterlimit="10"/>
<path d="M121.641 96.4005L138.654 69.4725" stroke="black" stroke-width="4" stroke-miterlimit="10" stroke-linecap="round"/>
<path d="M100.961 81.1592L108.554 96.4005" stroke="black" stroke-width="4" stroke-miterlimit="10" stroke-linecap="round"/>
<path d="M66.3846 79.9081L83.3012 74.0795" stroke="black" stroke-width="4" stroke-miterlimit="10" stroke-linecap="round"/>
<path d="M21.2396 123.564L44.8652 94.7372" stroke="black" stroke-width="4" stroke-miterlimit="10" stroke-linecap="round"/>
<path d="M1.4729 147.666L5.24358 143.066" stroke="black" stroke-width="4" stroke-miterlimit="10" stroke-linecap="round"/>
<path d="M53.9679 92.2645C57.9702 92.2645 61.2147 89.0223 61.2147 85.0229C61.2147 81.0234 57.9702 77.7812 53.9679 77.7812C49.9656 77.7812 46.7211 81.0234 46.7211 85.0229C46.7211 89.0223 49.9656 92.2645 53.9679 92.2645Z" stroke="black" stroke-width="4" stroke-miterlimit="10"/>
<path d="M95.5412 77.7886C99.5434 77.7886 102.788 74.5464 102.788 70.547C102.788 66.5475 99.5434 63.3054 95.5412 63.3054C91.5389 63.3054 88.2944 66.5475 88.2944 70.547C88.2944 74.5464 91.5389 77.7886 95.5412 77.7886Z" stroke="black" stroke-width="4" stroke-miterlimit="10"/>
<path d="M114.24 114.762C118.242 114.762 121.487 111.52 121.487 107.52C121.487 103.521 118.242 100.279 114.24 100.279C110.238 100.279 106.993 103.521 106.993 107.52C106.993 111.52 110.238 114.762 114.24 114.762Z" stroke="black" stroke-width="4" stroke-miterlimit="10"/>
<path d="M152.285 63.3937C156.288 63.3937 159.532 60.1515 159.532 56.152C159.532 52.1526 156.288 48.9104 152.285 48.9104C148.283 48.9104 145.039 52.1526 145.039 56.152C145.039 60.1515 148.283 63.3937 152.285 63.3937Z" stroke="#137A3A" stroke-width="4" stroke-miterlimit="10"/>
<path d="M152.285 69.3768C159.595 69.3768 165.52 63.4559 165.52 56.152C165.52 48.8482 159.595 42.9272 152.285 42.9272C144.976 42.9272 139.051 48.8482 139.051 56.152C139.051 63.4559 144.976 69.3768 152.285 69.3768Z" stroke="#137A3A" stroke-width="4" stroke-miterlimit="10"/>
<path d="M13.9928 140.432C17.995 140.432 21.2395 137.189 21.2395 133.19C21.2395 129.191 17.995 125.948 13.9928 125.948C9.99047 125.948 6.74597 129.191 6.74597 133.19C6.74597 137.189 9.99047 140.432 13.9928 140.432Z" stroke="black" stroke-width="4" stroke-miterlimit="10"/>
<path d="M70.7077 47.4827H68.1227L63.4093 40.1896C63.1711 39.8846 62.9867 39.5411 62.8644 39.174C62.9415 39.7988 62.9686 40.4288 62.9454 41.058V47.4827H60.5077V35.7077H63.2547L67.806 42.8463C68.0189 43.1425 68.2038 43.4579 68.3584 43.7883C68.2765 43.2701 68.2493 42.7447 68.2774 42.2207V35.7224H70.7077V47.4974V47.4827Z" fill="black"/>
<path d="M80.127 47.4901H73.3V35.7224H79.8913V37.9229H75.885V40.506H79.5746V42.6255H75.885V45.2896H80.127V47.4901Z" fill="black"/>
<path d="M97.235 35.7224L94.2892 47.4091H91.3875L89.5022 39.8805C89.4212 39.4904 89.3475 39.0194 89.2665 38.622C89.2097 39.0453 89.131 39.4653 89.0308 39.8805L87.0719 47.4091H84.126L81.1802 35.7224H84.0008L85.5695 43.5675C85.6733 44.004 85.7277 44.4509 85.7315 44.8996H85.8052C85.8148 44.4461 85.8943 43.9968 86.0408 43.5675L88.1618 35.8034H90.9088L92.8678 43.5675C92.9717 43.9794 93.0504 44.3972 93.1035 44.8186C93.1175 44.3974 93.1718 43.9784 93.2655 43.5675L94.8342 35.7224H97.235Z" fill="black"/>
<path d="M108.216 47.4827H105.005L101.705 42.39C101.585 42.1892 101.479 41.9802 101.389 41.7645H101.234V47.4827H98.649V35.7077H101.234V41.2787H101.315C101.399 41.0592 101.503 40.8474 101.624 40.6458L104.769 35.7887H107.825L103.9 41.3523L108.216 47.4827Z" fill="#137A3A"/>
<path d="M116.14 47.4901H109.313V35.7224H115.904V37.9229H111.905V40.506H115.595V42.6255H111.905V45.2896H116.14V47.4901Z" fill="#137A3A"/>
<path d="M126.583 35.7224L122.842 43.2511V47.4091H120.257V43.332L116.641 35.7224H119.623L121.509 40.138C121.509 40.2116 121.663 40.5281 121.825 41.08C121.881 40.7607 121.96 40.4459 122.061 40.138L123.939 35.7224H126.583Z" fill="#137A3A"/>
<path d="M44.2687 39.174C44.4143 39.174 44.5567 39.1308 44.6778 39.0499C44.799 38.9691 44.8934 38.8541 44.9491 38.7197C45.0048 38.5852 45.0194 38.4372 44.991 38.2945C44.9626 38.1517 44.8924 38.0206 44.7894 37.9176C44.6865 37.8147 44.5552 37.7446 44.4124 37.7162C44.2695 37.6878 44.1214 37.7024 43.9869 37.7581C43.8523 37.8138 43.7373 37.9081 43.6563 38.0292C43.5754 38.1502 43.5322 38.2925 43.5322 38.438C43.5322 38.6332 43.6098 38.8204 43.7479 38.9584C43.886 39.0964 44.0734 39.174 44.2687 39.174Z" fill="#137A3A"/>
<path d="M47.6417 31.8808C46.1845 31.8819 44.7457 32.2058 43.429 32.8294C42.1122 33.453 40.9502 34.3606 40.0267 35.4869C40.4994 35.5478 40.9537 35.7084 41.3597 35.9579C41.3597 35.9579 52.4066 37.5255 56.192 39.9614C55.2493 39.8805 54.3067 39.8805 53.2903 39.8805C52.112 39.8805 51.0147 40.035 49.7627 40.116C48.5107 40.1969 47.487 40.506 46.3087 40.587C45.7339 40.6482 45.1559 40.6728 44.578 40.6606C43.9996 40.6883 43.42 40.6388 42.8547 40.5134C43.4236 40.6279 43.9992 40.7066 44.578 40.7489C45.1521 40.8298 45.7346 40.8298 46.3087 40.7489C46.8537 40.7489 47.487 40.6679 48.032 40.6679C48.6051 40.58 49.1831 40.5283 49.7627 40.5134C50.9101 40.4324 52.0619 40.4324 53.2093 40.5134C53.9424 40.6054 54.68 40.657 55.4187 40.6679C52.7454 41.5363 45.9994 43.884 43.6353 46.0844C43.182 46.6496 42.8625 47.3099 42.7005 48.0159C42.5385 48.722 42.5384 49.4554 42.7 50.1615C44.1903 51.0248 45.8817 51.4806 47.6043 51.4833C49.3268 51.486 51.0197 51.0354 52.5126 50.1768C54.0056 49.3183 55.246 48.082 56.109 46.5923C56.9721 45.1027 57.4275 43.4122 57.4293 41.6909C57.4177 39.0977 56.3837 36.6137 54.5515 34.7773C52.7193 32.9409 50.2366 31.9002 47.6417 31.8808Z" fill="#137A3A"/>
</g>
<defs>
<clipPath id="clip0">
<rect width="167" height="185" fill="white"/>
</clipPath>
</defs>
</svg>
