<svg width="110" height="111" viewBox="0 0 110 111" fill="none" xmlns="http://www.w3.org/2000/svg">
<path d="M60.5 33.4063C64.8761 33.4063 69.0729 35.1421 72.1673 38.232C75.2616 41.3218 77 45.5125 77 49.8822C77 51.3387 77.5795 52.7356 78.6109 53.7656C79.6424 54.7955 81.0413 55.3741 82.5 55.3741C83.9587 55.3741 85.3576 54.7955 86.3891 53.7656C87.4205 52.7356 88 51.3387 88 49.8822C88 42.5994 85.1027 35.6149 79.9454 30.4652C74.7882 25.3154 67.7935 22.4224 60.5 22.4224C59.0413 22.4224 57.6424 23.001 56.6109 24.0309C55.5795 25.0609 55 26.4578 55 27.9143C55 29.3709 55.5795 30.7678 56.6109 31.7977C57.6424 32.8277 59.0413 33.4063 60.5 33.4063Z" fill="#1D843E" fill-opacity="0.3"/>
<path d="M60.5 11.4385C70.7108 11.4385 80.5034 15.4888 87.7236 22.6984C94.9437 29.908 99 39.6863 99 49.8822C99 51.3388 99.5795 52.7357 100.611 53.7656C101.642 54.7956 103.041 55.3742 104.5 55.3742C105.959 55.3742 107.358 54.7956 108.389 53.7656C109.421 52.7357 110 51.3388 110 49.8822C110 36.7732 104.785 24.2011 95.5018 14.9316C86.2187 5.66213 73.6282 0.45459 60.5 0.45459C59.0413 0.45459 57.6424 1.0332 56.6109 2.06315C55.5795 3.09309 55 4.48999 55 5.94655C55 7.40311 55.5795 8.80001 56.6109 9.82995C57.6424 10.8599 59.0413 11.4385 60.5 11.4385ZM108.625 76.8477C108.322 75.9661 107.8 75.1758 107.107 74.5513C106.415 73.9268 105.574 73.4886 104.665 73.278L71.665 65.754C70.7692 65.5512 69.8369 65.5756 68.953 65.825C68.0692 66.0744 67.2619 66.5409 66.605 67.1819C65.835 67.8958 65.78 67.9508 62.205 74.7608C50.3426 69.3026 40.8375 59.7724 35.42 47.9051C42.405 44.3903 42.46 44.3903 43.175 43.5665C43.8169 42.9105 44.2841 42.1044 44.5338 41.2219C44.7836 40.3393 44.8081 39.4083 44.605 38.5139L37.07 5.94655C36.8591 5.0387 36.4202 4.1994 35.7948 3.50763C35.1694 2.81587 34.3779 2.29441 33.495 1.99234C32.2106 1.53425 30.8842 1.20315 29.535 1.00379C28.1449 0.681931 26.7263 0.497973 25.3 0.45459C18.59 0.45459 12.1549 3.11622 7.4102 7.85395C2.66553 12.5917 0 19.0174 0 25.7176C0.0291055 48.1397 8.96218 69.6351 24.8402 85.4899C40.7182 101.345 62.2451 110.265 84.7 110.294C88.0224 110.294 91.3123 109.64 94.3819 108.371C97.4514 107.101 100.24 105.24 102.59 102.894C104.939 100.549 106.803 97.7635 108.074 94.6985C109.346 91.6334 110 88.3483 110 85.0307C110.002 83.6329 109.891 82.2371 109.67 80.8569C109.439 79.4927 109.089 78.1513 108.625 76.8477ZM84.7 99.3098C65.158 99.2953 46.4206 91.5372 32.6023 77.7391C18.784 63.941 11.0146 45.231 11 25.7176C11.0145 21.935 12.5257 18.3115 15.2044 15.6367C17.883 12.962 21.5119 11.453 25.3 11.4385H27.115L33 36.9212L30.03 38.4589C25.3 40.9303 21.56 42.9074 23.54 47.1912C26.7642 56.3055 31.9812 64.5882 38.812 71.4375C45.6428 78.2868 53.9158 83.5307 63.03 86.7882C67.65 88.6554 69.465 85.1955 71.94 80.4175L73.535 77.3969L99 83.2184V85.0307C98.9855 88.8133 97.4743 92.4369 94.7956 95.1116C92.117 97.7863 88.4881 99.2954 84.7 99.3098Z" fill="#1D843E" fill-opacity="0.3"/>
</svg>
